<mxfile host="app.diagrams.net" modified="2023-04-23T15:15:31.259Z" agent="Mozilla/5.0 (Windows NT 10.0; Win64; x64) AppleWebKit/537.36 (KHTML, like Gecko) Chrome/111.0.0.0 Safari/537.36 OPR/97.0.0.0" version="21.2.1" etag="EKhbuwaJIxvYWL0v20ez" type="github">
  <diagram name="Page-1" id="a9Q3TMffK5-xhdUXJ__h">
    <mxGraphModel>
      <root>
        <mxCell id="0" />
        <mxCell id="1" parent="0" />
      </root>
    </mxGraphModel>
  </diagram>
</mxfile>
